<?xml version="1.0" encoding="UTF-8" standalone="no"?>
<!DOCTYPE svg PUBLIC "-//W3C//DTD SVG 1.1//EN" "http://www.w3.org/Graphics/SVG/1.1/DTD/svg11.dtd">
<svg width="100%" height="100%" viewBox="0 0 1182 1182" version="1.1" xmlns="http://www.w3.org/2000/svg" xmlns:xlink="http://www.w3.org/1999/xlink" xml:space="preserve" xmlns:serif="http://www.serif.com/" style="fill-rule:evenodd;clip-rule:evenodd;stroke-linejoin:round;stroke-miterlimit:2;">
    <rect id="logo-color" serif:id="logo color" x="0" y="0" width="1181.1" height="1181.1" style="fill:none;"/>
    <g id="logo-color1" serif:id="logo color">
        <g transform="matrix(2.15745,0,0,2.05707,-680.115,-637.692)">
            <g transform="matrix(12.8859,0,0,12.8859,650.733,377.123)">
                <path d="M0,34.14L13,16.183C13.574,15.39 13.625,14.647 13.449,13.551C11.806,5.041 4.319,-1.385 -4.67,-1.385C-14.862,-1.385 -23.125,6.877 -23.125,17.07C-23.125,27.262 -14.862,35.525 -4.67,35.525C-3.673,35.525 -2.695,35.445 -1.741,35.293C-0.82,35.095 -0.394,34.683 0,34.14" style="fill:rgb(84,86,91);fill-rule:nonzero;"/>
            </g>
            <g transform="matrix(12.8859,0,0,12.8859,803.048,811.082)">
                <path d="M0,-17.708C-5.849,-17.352 -7.97,-16.195 -10.164,-13.575C-12.748,-10.492 -13.736,-7.355 -12.472,-1.327C-12.214,-0.099 -12.209,0.705 -12.883,1.395C-12.4,1.171 -12.102,0.851 -11.82,0.463L-11.82,0.462L1.18,-17.494C1.556,-18.013 1.706,-18.512 1.717,-19.103C1.405,-18.332 0.866,-17.761 0,-17.708" style="fill:rgb(195,214,0);fill-rule:nonzero;"/>
            </g>
        </g>
    </g>
</svg>
