<?xml version="1.0" encoding="UTF-8" standalone="no"?>
<!DOCTYPE svg PUBLIC "-//W3C//DTD SVG 1.1//EN" "http://www.w3.org/Graphics/SVG/1.1/DTD/svg11.dtd">
<svg width="100%" height="100%" viewBox="0 0 243 243" version="1.1" xmlns="http://www.w3.org/2000/svg" xmlns:xlink="http://www.w3.org/1999/xlink" xml:space="preserve" xmlns:serif="http://www.serif.com/" style="fill-rule:evenodd;clip-rule:evenodd;stroke-linecap:round;stroke-linejoin:round;stroke-miterlimit:2;">
    <g transform="matrix(1.33333,0,0,1.33333,-5706.36,-851.818)">
        <g transform="matrix(1,0,0,1,4140.83,0)">
            <g transform="matrix(1.89518,0,0,1.89518,-5539.27,-109.542)">
                <circle cx="3044.09" cy="442.859" r="45.211" style="fill:none;stroke:rgb(84,86,91);stroke-width:5.5px;"/>
            </g>
        </g>
        <g transform="matrix(1,0,0,1,4140.83,0)">
            <g transform="matrix(1.2684,0,0,0.978553,-3598.35,14.819)">
                <path d="M3015.39,645.867C3015.39,645.867 2958.21,735.561 3013.52,815.389" style="fill:none;stroke:rgb(84,86,91);stroke-width:9.2px;"/>
            </g>
        </g>
        <g transform="matrix(1,0,0,1,4140.83,0)">
            <g transform="matrix(-1.21301,0,0,0.98261,3892.32,10.9345)">
                <path d="M3015.39,645.867C3015.39,645.867 2958.21,735.561 3013.52,815.389" style="fill:none;stroke:rgb(84,86,91);stroke-width:9.44px;"/>
            </g>
        </g>
        <g transform="matrix(1,0,0,1,4140.83,0)">
            <g transform="matrix(1.01136,0,0,1,-2833.79,14.5819)">
                <path d="M2951.08,692.372L3107.55,692.372" style="fill:none;stroke:rgb(84,86,91);stroke-width:10.36px;"/>
            </g>
        </g>
        <g transform="matrix(1,0,0,1,4140.83,0)">
            <g transform="matrix(1.019,0,0,1.05119,-2856.25,28.8666)">
                <path d="M2951.08,692.372L3107.55,692.372" style="fill:none;stroke:rgb(84,86,91);stroke-width:10.06px;"/>
            </g>
        </g>
    </g>
</svg>
